HIERARCHY
ROOT Hips
{
  OFFSET 5.70366 102.999 -1.77653
  CHANNELS 6 Xposition Yposition Zposition Zrotation Xrotation Yrotation
  JOINT RightUpLeg
  {
    OFFSET -8.9458 -8.66707 0.101652
    CHANNELS 3 Zrotation Xrotation Yrotation
    JOINT RightLeg
    {
      OFFSET 0 -44.4227 1.3727
      CHANNELS 3 Zrotation Xrotation Yrotation
      JOINT RightFoot
      {
        OFFSET 0.253549 -42.0924 -1.46059
        CHANNELS 3 Zrotation Xrotation Yrotation
        JOINT RightToes
        {
          OFFSET 0.04 -4.41509 8.4991
          CHANNELS 3 Zrotation Xrotation Yrotation
          End Site
          {
            OFFSET -0.08 -0.137448 9.77979
          }
        }
      }
    }
  }
  JOINT Spine
  {
    OFFSET 0 11.8905 0
    CHANNELS 3 Zrotation Xrotation Yrotation
    JOINT Spine1
    {
      OFFSET 0 25.6574 0.127663
      CHANNELS 3 Zrotation Xrotation Yrotation
      JOINT HEad
      {
        OFFSET 0 8.73416 0.011341
        CHANNELS 3 Zrotation Xrotation Yrotation
        End Site
        {
          OFFSET -0.29 12.7742 2.51395
        }
      }
      JOINT LeftShoulder1
      {
        OFFSET 8.99 -0.362252 -0.22
        CHANNELS 3 Zrotation Xrotation Yrotation
        JOINT LeftArm
        {
          OFFSET 10.2827 -0.00337999 0.322123
          CHANNELS 3 Zrotation Xrotation Yrotation
          JOINT LeftForeArm
          {
            OFFSET 26.2597 0.099144 -1.42434
            CHANNELS 3 Zrotation Xrotation Yrotation
            JOINT LeftHand
            {
              OFFSET 22.0902 0.085362 1.02216
              CHANNELS 3 Zrotation Xrotation Yrotation
              End Site
              {
                OFFSET 13.419 -0.6 1.50291
              }
            }
          }
        }
      }
      JOINT RightShoulder
      {
        OFFSET -8.99 -0.362252 -0.22
        CHANNELS 3 Zrotation Xrotation Yrotation
        JOINT RightArm
        {
          OFFSET -10.2827 -0.00338 0.322123
          CHANNELS 3 Zrotation Xrotation Yrotation
          JOINT RightForeArm
          {
            OFFSET -26.364 0.099144 -1.42434
            CHANNELS 3 Zrotation Xrotation Yrotation
            JOINT RightHand
            {
              OFFSET -22.0324 0.085362 1.02216
              CHANNELS 3 Zrotation Xrotation Yrotation
              End Site
              {
                OFFSET -13.3284 -0.6 1.50291
              }
            }
          }
        }
      }
    }
  }
  JOINT LeftUpLeg
  {
    OFFSET 8.9458 -8.66707 0.101652
    CHANNELS 3 Zrotation Xrotation Yrotation
    JOINT LeftLeg
    {
      OFFSET 0 -44.4227 1.3727
      CHANNELS 3 Zrotation Xrotation Yrotation
      JOINT LeftFoot
      {
        OFFSET -0.253549 -42.0924 -1.46059
        CHANNELS 3 Zrotation Xrotation Yrotation
        JOINT LeftToes
        {
          OFFSET -0.04 -4.41509 8.4991
          CHANNELS 3 Zrotation Xrotation Yrotation
          End Site
          {
            OFFSET 0.08 -0.047448 9.77979
          }
        }
      }
    }
  }
}
MOTION
Frames:	7
Frame Time:	0.0416667
27.0341 95.461 -7.0593 -1.759 0.962938 -96.602 -0.00462512 14.0033 7.80369 -0.673061 27.5757 -0.951182 1.38212 -22.2532 -0.0902259 0.0462048 0.000530886 0.662642 4.76186 4.88749 2.84982 -5.70086 0.721398 4.04684 2.05504 12.6151 0.749339 -34.9651 -4.12027 13.6777 -36.2464 -30.0283 5.79428 -9.38398 62.2405 -0.091601 0.570594 9.91245 -3.47695 42.5355 1.35373 -1.38908 33.4894 -1.09681 7.58227 0.85569 30.5103 20.1116 0.219963 9.97827 3.51906 1.59633 -31.6015 -1.92316 2.56913 12.5625 15.8271 3.6513 1.58406 -0.319416 -1.36177e-009 8.75222e-006 -1.47714e-008 
21.7679 95.1779 -6.24113 -2.14487 -1.38115e-005 -96.4966 -1.87013 13.7512 7.85353 -0.392171 33.8277 -0.520913 6.0154 -17.1152 0.261786 0.0462048 0.000530886 0.662642 3.35563 4.46683 2.64153 -5.84167 0.484022 3.7756 2.87659 12.6252 0.0880347 -34.9098 -4.04317 13.5054 -36.4835 -30.5647 4.63761 -10.4978 64.0402 1.77133 0.434533 9.92326 -3.35629 42.6794 1.25693 -1.59219 34.3214 -3.43596 6.27066 0.880917 29.4411 20.1964 0.794335 10.0276 3.8608 -0.407475 -32.2101 -3.90806 1.70302 18.761 17.155 5.13539 7.36341 -0.726533 -1.36177e-009 8.75222e-006 -1.47714e-008 
16.9806 95.1907 -5.5265 -2.83588 -0.710287 -96.2223 -2.9256 10.154 6.87065 -0.461041 44.4125 -0.109028 6.65926 -4.6406 -0.309714 0.0462048 0.000530886 0.662642 2.05262 4.7949 2.51366 -5.8761 0.505605 3.53329 3.3901 12.0895 -0.654864 -34.3558 -3.79351 13.0303 -38.5591 -30.7639 1.40499 -11.7706 65.7754 3.60882 0.462796 9.92018 -3.34271 42.4411 1.27805 -1.5378 35.3569 -6.04992 5.18022 0.770952 29.5763 20.0142 0.947371 10.0405 3.89747 -1.60069 -31.7442 -2.92703 0.970892 23.8236 15.915 5.06084 9.14412 -0.810942 -1.36177e-009 8.75222e-006 -1.47714e-008 
12.9723 95.3776 -4.99519 -3.43474 -1.76084 -96.6383 -3.74301 3.94899 7.06059 -0.582168 55.8388 -0.274066 4.60828 7.38395 -0.66716 0.0462048 0.000530886 0.662642 -0.25291 5.33562 2.55795 -5.83975 0.946916 3.27945 3.10546 11.9397 -0.34638 -33.6796 -3.56565 12.6235 -41.006 -29.9192 -2.58433 -12.0957 65.4383 3.47195 0.893971 9.88798 -3.70912 42.3602 1.33001 -1.42836 35.5627 -6.1124 5.27702 0.725748 30.4597 19.7632 0.858916 10.0301 3.69235 -2.7521 -30.4339 -0.538352 0.912417 27.0553 14.5057 5.42631 7.77866 -0.79166 -1.36177e-009 8.75222e-006 -1.47714e-008 
9.17005 96.1908 -4.5477 -3.73567 -2.47546 -96.6801 -3.45978 -2.60783 7.4479 -0.919568 64.4278 -1.84515 1.40461 8.67024 -0.266653 0.0462048 0.000530886 0.662642 -2.10734 5.52952 2.11998 -5.30686 0.945009 2.59664 2.53485 12.7187 0.454817 -33.2836 -3.43037 12.3734 -42.9192 -28.6773 -7.2605 -11.9938 63.8321 2.53312 1.32915 9.85238 -4.26393 42.6399 1.28361 -1.53631 35.3414 -5.12677 5.90574 0.644594 31.2929 19.7201 0.840768 10.0236 3.37269 -3.98768 -28.0623 0.29171 0.903522 27.8958 14.1285 6.06461 5.64249 -0.75294 -1.36177e-009 8.75222e-006 -1.47714e-008 
5.55594 97.5609 -4.20428 -3.85048 -2.33104 -96.2235 -1.75729 -8.80133 8.02782 -1.30958 68.3273 -4.30584 -1.04393 4.02001 0.0150725 0.0462048 0.000530886 0.662642 -2.74592 5.73587 1.45299 -4.5253 0.656201 1.83366 2.28405 13.7004 0.847974 -32.4811 -3.18612 11.9253 -45.5737 -27.6307 -12.3155 -10.813 61.6523 0.926539 1.67165 9.8223 -4.5459 42.6188 1.26021 -1.58256 35.6195 -5.19534 5.9669 0.455551 31.33 19.9227 0.789642 10.0191 3.23734 -4.35975 -24.6999 0.429343 0.788116 26.567 13.6852 5.83754 3.66461 -0.615123 -1.36177e-009 8.75222e-006 -1.47714e-008 
2.2225 98.8084 -3.97903 -3.75835 -1.78035 -95.9482 0.491785 -14.3718 9.42838 -1.37802 67.0919 -5.44733 -1.52222 1.65755 0.013993 0.0462048 0.000530886 0.662642 -3.04823 5.87861 0.960207 -3.70082 0.441063 1.22205 2.25165 14.1555 1.16524 -31.1312 -2.84051 11.3013 -48.5202 -26.4886 -16.2692 -8.26745 58.0102 -2.33827 2.06446 9.78693 -4.72219 42.2973 1.26597 -1.55565 35.7264 -4.5667 5.75209 0.383769 30.3952 20.362 0.712543 10.0204 3.39187 -4.02257 -21.4668 0.584602 0.603925 24.7411 13.5005 5.26719 2.23889 -0.484245 -1.36177e-009 8.75222e-006 -1.47714e-008 
